<svg width="100" height="47" viewBox="0 0 100 47" fill="none" xmlns="http://www.w3.org/2000/svg">
<path opacity="0.25" d="M25.3859 46.9C20.3459 46.9 15.9859 45.94 12.3059 44.02C8.66594 42.06 5.84594 39.32 3.84594 35.8C1.84594 32.28 0.845938 28.18 0.845938 23.5C0.845938 18.82 1.84594 14.72 3.84594 11.2C5.84594 7.68 8.66594 4.96 12.3059 3.04C15.9859 1.08 20.3459 0.0999973 25.3859 0.0999973C30.3859 0.0999973 34.7059 1.08 38.3459 3.04C42.0259 4.96 44.8659 7.68 46.8659 11.2C48.8659 14.72 49.8659 18.82 49.8659 23.5C49.8659 28.18 48.8659 32.28 46.8659 35.8C44.8659 39.32 42.0259 42.06 38.3459 44.02C34.7059 45.94 30.3859 46.9 25.3859 46.9ZM25.3859 38.62C29.9059 38.62 33.4059 37.3 35.8859 34.66C38.4059 31.98 39.6659 28.26 39.6659 23.5C39.6659 18.7 38.4059 14.98 35.8859 12.34C33.4059 9.7 29.9059 8.38 25.3859 8.38C20.8659 8.38 17.3459 9.7 14.8259 12.34C12.3059 14.98 11.0459 18.7 11.0459 23.5C11.0459 28.3 12.3059 32.02 14.8259 34.66C17.3459 37.3 20.8659 38.62 25.3859 38.62ZM55.7567 15.22C55.9967 12.38 56.9967 9.82 58.7567 7.54C60.5567 5.26 63.0967 3.46 66.3767 2.14C69.6567 0.779998 73.5967 0.0999973 78.1967 0.0999973C82.2367 0.0999973 85.7367 0.619998 88.6967 1.66C91.6567 2.7 93.9567 4.14 95.5967 5.98C97.2367 7.82 98.0567 10 98.0567 12.52C98.0567 14.56 97.4367 16.42 96.1967 18.1C94.9967 19.74 93.1167 21.06 90.5567 22.06C87.9967 23.02 84.7567 23.48 80.8367 23.44V22.3C84.6367 22.1 87.8767 22.4 90.5567 23.2C93.2767 23.96 95.3767 25.16 96.8567 26.8C98.3367 28.44 99.0767 30.5 99.0767 32.98C99.0767 35.66 98.2167 38.06 96.4967 40.18C94.8167 42.26 92.3567 43.9 89.1167 45.1C85.8767 46.3 81.9367 46.9 77.2967 46.9C72.7767 46.9 68.8367 46.26 65.4767 44.98C62.1167 43.7 59.4967 41.9 57.6167 39.58C55.7367 37.26 54.7167 34.54 54.5567 31.42H64.7567C65.0767 33.82 66.2767 35.66 68.3567 36.94C70.4367 38.22 73.4167 38.86 77.2967 38.86C81.0567 38.86 83.8967 38.28 85.8167 37.12C87.7367 35.96 88.6967 34.34 88.6967 32.26C88.6967 31.02 88.3767 29.98 87.7367 29.14C87.0967 28.3 85.9967 27.68 84.4367 27.28C82.9167 26.84 80.8367 26.62 78.1967 26.62H70.2767V19.48H78.1967C81.6367 19.48 84.0967 18.96 85.5767 17.92C87.0567 16.88 87.7967 15.54 87.7967 13.9C87.7967 12.06 86.9567 10.64 85.2767 9.64C83.5967 8.64 81.0567 8.14 77.6567 8.14C74.1767 8.14 71.4567 8.76 69.4967 10C67.5367 11.2 66.3567 12.94 65.9567 15.22H55.7567Z" fill="#FF772D"/>
</svg>
