<svg width="99" height="47" viewBox="0 0 99 47" fill="none" xmlns="http://www.w3.org/2000/svg">
<path opacity="0.25" d="M24.6789 46.9C19.6389 46.9 15.2789 45.94 11.5989 44.02C7.95891 42.06 5.13891 39.32 3.13891 35.8C1.13891 32.28 0.138906 28.18 0.138906 23.5C0.138906 18.82 1.13891 14.72 3.13891 11.2C5.13891 7.68 7.95891 4.96 11.5989 3.04C15.2789 1.08 19.6389 0.0999973 24.6789 0.0999973C29.6789 0.0999973 33.9989 1.08 37.6389 3.04C41.3189 4.96 44.1589 7.68 46.1589 11.2C48.1589 14.72 49.1589 18.82 49.1589 23.5C49.1589 28.18 48.1589 32.28 46.1589 35.8C44.1589 39.32 41.3189 42.06 37.6389 44.02C33.9989 45.94 29.6789 46.9 24.6789 46.9ZM24.6789 38.62C29.1989 38.62 32.6989 37.3 35.1789 34.66C37.6989 31.98 38.9589 28.26 38.9589 23.5C38.9589 18.7 37.6989 14.98 35.1789 12.34C32.6989 9.7 29.1989 8.38 24.6789 8.38C20.1589 8.38 16.6389 9.7 14.1189 12.34C11.5989 14.98 10.3389 18.7 10.3389 23.5C10.3389 28.3 11.5989 32.02 14.1189 34.66C16.6389 37.3 20.1589 38.62 24.6789 38.62ZM54.2097 16.84C54.4497 13.4 55.5697 10.44 57.5697 7.96C59.5697 5.44 62.2097 3.5 65.4897 2.14C68.8097 0.779998 72.5697 0.0999973 76.7697 0.0999973C80.7697 0.0999973 84.2697 0.719998 87.2697 1.96C90.2697 3.16 92.6097 4.86 94.2897 7.06C95.9697 9.26 96.8097 11.82 96.8097 14.74C96.8097 16.98 96.2297 19.06 95.0697 20.98C93.9097 22.9 92.0497 24.84 89.4897 26.8C86.9697 28.72 83.6097 30.8 79.4097 33.04L65.7897 40.54L65.0097 37.78H98.0697V46H54.8697V38.8L74.1297 27.52C77.3297 25.68 79.8297 24.1 81.6297 22.78C83.4297 21.42 84.7097 20.16 85.4697 19C86.2297 17.84 86.6097 16.6 86.6097 15.28C86.6097 13.88 86.2297 12.64 85.4697 11.56C84.7097 10.48 83.5697 9.64 82.0497 9.04C80.5697 8.44 78.6897 8.14 76.4097 8.14C73.7297 8.14 71.5297 8.54 69.8097 9.34C68.0897 10.1 66.7897 11.14 65.9097 12.46C65.0697 13.78 64.5697 15.24 64.4097 16.84H54.2097Z" fill="#FF772D"/>
</svg>
