<svg width="78" height="47" viewBox="0 0 78 47" fill="none" xmlns="http://www.w3.org/2000/svg">
<path opacity="0.25" d="M25.4055 46.9C20.3655 46.9 16.0055 45.94 12.3255 44.02C8.68547 42.06 5.86547 39.32 3.86547 35.8C1.86547 32.28 0.865469 28.18 0.865469 23.5C0.865469 18.82 1.86547 14.72 3.86547 11.2C5.86547 7.68 8.68547 4.96 12.3255 3.04C16.0055 1.08 20.3655 0.0999973 25.4055 0.0999973C30.4055 0.0999973 34.7255 1.08 38.3655 3.04C42.0455 4.96 44.8855 7.68 46.8855 11.2C48.8855 14.72 49.8855 18.82 49.8855 23.5C49.8855 28.18 48.8855 32.28 46.8855 35.8C44.8855 39.32 42.0455 42.06 38.3655 44.02C34.7255 45.94 30.4055 46.9 25.4055 46.9ZM25.4055 38.62C29.9255 38.62 33.4255 37.3 35.9055 34.66C38.4255 31.98 39.6855 28.26 39.6855 23.5C39.6855 18.7 38.4255 14.98 35.9055 12.34C33.4255 9.7 29.9255 8.38 25.4055 8.38C20.8855 8.38 17.3655 9.7 14.8455 12.34C12.3255 14.98 11.0655 18.7 11.0655 23.5C11.0655 28.3 12.3255 32.02 14.8455 34.66C17.3655 37.3 20.8855 38.62 25.4055 38.62ZM77.0275 0.999996V46H66.9475V4.36L71.9875 8.92L52.8475 12.28V4.36L69.5275 0.999996H77.0275Z" fill="#FF772D"/>
</svg>
