<svg width="100" height="47" viewBox="0 0 100 47" fill="none" xmlns="http://www.w3.org/2000/svg">
<path opacity="0.25" d="M24.5637 46.9C19.5237 46.9 15.1637 45.94 11.4837 44.02C7.84367 42.06 5.02367 39.32 3.02367 35.8C1.02367 32.28 0.0236721 28.18 0.0236721 23.5C0.0236721 18.82 1.02367 14.72 3.02367 11.2C5.02367 7.68 7.84367 4.96 11.4837 3.04C15.1637 1.08 19.5237 0.0999973 24.5637 0.0999973C29.5637 0.0999973 33.8837 1.08 37.5237 3.04C41.2037 4.96 44.0437 7.68 46.0437 11.2C48.0437 14.72 49.0437 18.82 49.0437 23.5C49.0437 28.18 48.0437 32.28 46.0437 35.8C44.0437 39.32 41.2037 42.06 37.5237 44.02C33.8837 45.94 29.5637 46.9 24.5637 46.9ZM24.5637 38.62C29.0837 38.62 32.5837 37.3 35.0637 34.66C37.5837 31.98 38.8437 28.26 38.8437 23.5C38.8437 18.7 37.5837 14.98 35.0637 12.34C32.5837 9.7 29.0837 8.38 24.5637 8.38C20.0437 8.38 16.5237 9.7 14.0037 12.34C11.4837 14.98 10.2237 18.7 10.2237 23.5C10.2237 28.3 11.4837 32.02 14.0037 34.66C16.5237 37.3 20.0437 38.62 24.5637 38.62ZM92.1945 0.999996V46H82.1145V5.38H85.5945L60.9945 32.62L60.8745 29.26H99.8745V37.06H53.2545V29.86L79.2945 0.999996H92.1945Z" fill="#FF772D"/>
</svg>
