<svg width="60" height="69" viewBox="0 0 60 69" fill="none" xmlns="http://www.w3.org/2000/svg">
<path d="M28.7558 30.5919C28.6466 30.5391 28.551 30.4401 28.487 30.3125L22.4411 18.0708C22.3498 17.8847 22.3348 17.6622 22.4009 17.4804C22.4671 17.2986 22.6054 17.1836 22.7675 17.1746L53.3659 15.8609C53.5949 15.8514 53.8144 16.0544 53.8873 16.3435C53.9604 16.6333 53.8662 16.9258 53.6632 17.0392L29.1025 30.6053C28.9944 30.6567 28.8705 30.6521 28.7558 30.5919ZM23.6524 18.3647L29.0222 29.2358L50.851 17.1971L23.6524 18.3647Z" fill="#24A2DF" fill-opacity="0.4"/>
<path d="M40.1084 48.1747C40.0221 48.132 39.9444 48.0604 39.8835 47.9679L30.7947 34.2183C30.7011 34.0767 30.6555 33.8968 30.6696 33.7243C30.684 33.5525 30.7565 33.4044 30.869 33.3183L53.1662 15.9637C53.3452 15.8204 53.5914 15.8654 53.7609 16.0721C53.9302 16.2792 53.9778 16.5932 53.8761 16.8308L40.6604 47.9383C40.5889 48.1061 40.4533 48.2094 40.2975 48.2143C40.2342 48.2176 40.1697 48.2037 40.1078 48.174L40.1084 48.1747ZM31.8522 34.0436L40.0989 46.52L52.0863 18.246L31.8522 34.0436Z" fill="#24A2DF" fill-opacity="0.4"/>
<path d="M26.3804 40.0017C26.2182 39.9225 26.0912 39.7444 26.0461 39.5321C26.001 39.3198 26.044 39.1044 26.1599 38.9651L30.7789 33.3799C30.8663 33.2748 30.9866 33.2232 31.1136 33.2359C31.2405 33.2491 31.3636 33.3264 31.4557 33.4501C31.6478 33.7082 31.656 34.0949 31.474 34.3139L27.9358 38.5911L33.3791 37.7629L33.379 37.7634C33.6371 37.7251 33.8934 37.9663 33.9516 38.3027C34.0098 38.639 33.8475 38.9424 33.5894 38.9807L26.6139 40.0343C26.5374 40.0478 26.4571 40.0366 26.3804 40.0017Z" fill="#24A2DF" fill-opacity="0.4"/>
<path d="M26.3827 40.0024C26.2614 39.9375 26.16 39.8159 26.101 39.6642C26.0422 39.5132 26.0307 39.3443 26.0686 39.1953L28.4403 29.7778C28.522 29.4703 28.789 29.3301 29.0412 29.4615C29.1624 29.5264 29.2639 29.648 29.3225 29.7995C29.3815 29.9512 29.3931 30.1196 29.3548 30.2688L26.983 39.6864C26.9452 39.8353 26.8607 39.9522 26.7479 40.0117C26.6355 40.0709 26.5038 40.0678 26.3827 40.0024Z" fill="#24A2DF" fill-opacity="0.4"/>
<path d="M5.22677 54.5086C5.04565 54.4202 4.90991 54.2093 4.88074 53.969C4.85108 53.729 4.93279 53.504 5.09007 53.3942L22.1748 41.3431C22.3955 41.1881 22.6926 41.3067 22.8385 41.6076C22.9844 41.9085 22.9233 42.2783 22.7027 42.4329L5.62387 54.4576C5.5103 54.5505 5.36495 54.5692 5.22671 54.5089L5.22677 54.5086Z" fill="#24A2DF" fill-opacity="0.4"/>
<path d="M14.2917 34.4403C14.1106 34.3519 13.9753 34.1407 13.9457 33.9007C13.9161 33.6603 13.9982 33.4354 14.1551 33.3254L22.1293 27.7138C22.35 27.5587 22.6471 27.6773 22.793 27.9782C22.9389 28.2791 22.8779 28.6485 22.6572 28.8036L14.6829 34.4157C14.5675 34.4962 14.4251 34.5054 14.2917 34.4403Z" fill="#24A2DF" fill-opacity="0.4"/>
<path d="M22.7884 54.7372C22.6069 54.6486 22.4716 54.4379 22.442 54.1974C22.4128 53.9571 22.4946 53.7321 22.6515 53.6221L33.8926 45.7331L33.8925 45.7336C34.1132 45.5785 34.4106 45.6973 34.5562 45.998C34.7021 46.2989 34.641 46.6688 34.4204 46.8234L23.2066 54.7257C23.083 54.8126 22.9286 54.817 22.7884 54.7372Z" fill="#24A2DF" fill-opacity="0.4"/>
<path d="M11.8334 56.8658C11.6523 56.7774 11.5166 56.5665 11.4874 56.3262C11.4578 56.0858 11.5395 55.8607 11.6964 55.7507L28.5089 43.8932L28.5093 43.8934C28.7299 43.7388 29.0271 43.857 29.1729 44.1583C29.3188 44.4592 29.2578 44.8286 29.0371 44.9837L12.2246 56.8412L12.2243 56.841C12.1091 56.9221 11.9664 56.9307 11.8334 56.8658Z" fill="#24A2DF" fill-opacity="0.4"/>
<path d="M5.65218 46.9965C5.47068 46.9079 5.33533 46.6972 5.30578 46.4567C5.27612 46.2167 5.3582 45.9919 5.5151 45.8819L22.4965 33.9131C22.7176 33.7582 23.0147 33.8768 23.1606 34.1777C23.3061 34.4784 23.2454 34.8485 23.0244 35.0029L6.03721 46.9688C5.9236 47.0487 5.78319 47.0584 5.65168 46.9962L5.65218 46.9965Z" fill="#24A2DF" fill-opacity="0.4"/>
</svg>
